<svg width="368" height="374" viewBox="0 0 368 374" fill="none" xmlns="http://www.w3.org/2000/svg">
<mask id="mask0_2404_269" style="mask-type:alpha" maskUnits="userSpaceOnUse" x="72" y="64" width="211" height="210">
<path d="M243.486 64.3662C243.626 65.0048 243.661 65.6691 243.853 66.2949C248.369 80.4473 252.865 94.6314 257.381 108.784C257.56 109.359 257.738 109.934 258.042 110.882C241.579 107.247 225.384 103.68 208.77 100.001C212.789 95.7865 216.62 91.8068 220.417 87.8082C188.156 71.6009 138.225 74.0408 105.145 109.544C73.239 143.79 72.3909 196.772 102.781 232.088C134.413 268.848 189.235 276.997 230.778 251.262C271.818 225.838 289.224 171.22 262.823 125.831C264.947 124.692 267.058 123.501 269.254 122.317C273.064 128.677 275.919 135.216 278.069 142.037C284.04 160.892 284.486 179.917 278.994 198.917C277.187 205.092 274.358 210.979 271.98 216.998C271.662 217.803 271.331 218.557 270.98 219.343C268.967 222.608 266.935 225.904 264.922 229.17C264.452 229.715 263.93 230.274 263.493 230.838C261.394 233.452 259.405 236.173 257.128 238.642C240.596 256.741 220.035 267.969 195.413 272.093C176.339 275.287 157.714 273.499 139.702 266.61C136.208 265.287 132.832 263.773 129.397 262.354C125.888 260.334 122.412 258.333 118.903 256.314C118.372 255.879 117.84 255.444 117.308 255.009C112.97 251.524 108.318 248.331 104.313 244.522C88.2117 229.199 78.2941 210.692 74.4291 189.141C71.15 170.675 73.0378 152.693 80.1191 135.295C81.5031 131.969 83.1229 128.692 84.592 125.372C86.8783 121.663 89.145 117.986 91.4312 114.277C92.5268 112.932 93.6357 111.637 94.7313 110.292C107.702 94.0079 124.327 82.533 144.484 76.1402C171.691 67.5352 198.349 69.2646 224.168 81.2915C225.44 81.8948 226.16 81.8798 227.184 80.7945C232.456 75.1966 237.788 69.7187 243.106 64.1903C243.257 64.2341 243.388 64.3096 243.486 64.3662Z" fill="#FF3230"/>
</mask>
<g mask="url(#mask0_2404_269)">
<rect width="178.534" height="137.567" transform="matrix(0.865057 0.497926 -0.523758 0.849687 140.264 -21.9136)" fill="#FF8E8D"/>
</g>
<mask id="mask1_2404_269" style="mask-type:alpha" maskUnits="userSpaceOnUse" x="88" y="100" width="211" height="209">
<path d="M260.894 308.616C260.245 308.435 259.622 308.152 258.961 308.022C243.91 305.224 228.84 302.395 213.79 299.597C213.181 299.479 212.572 299.361 211.563 299.175C222.618 286.84 233.485 274.701 244.652 262.258C246.613 267.667 248.449 272.804 250.318 277.923C280.28 258.019 301.51 214.281 284.619 169.381C268.325 126.073 220.323 100.454 173.784 109.783C125.341 119.492 92.1405 162.426 96.1326 209.956C100.076 256.91 141.793 297.422 195.661 296.228C195.704 298.576 195.799 300.935 195.849 303.365C188.249 303.627 180.934 302.99 173.694 301.619C153.664 297.852 136.075 289.293 121.298 275.681C116.506 271.237 112.457 266.058 108.076 261.202C107.49 260.552 106.957 259.915 106.404 259.246C104.367 255.995 102.31 252.713 100.273 249.462C99.995 248.805 99.73 248.097 99.4195 247.459C98.0184 244.44 96.4669 241.465 95.2814 238.363C86.5146 215.756 85.9172 192.941 93.7187 170.001C99.7621 152.23 110.145 137.183 124.901 125.055C127.751 122.697 130.72 120.528 133.63 118.265C137.124 116.221 140.585 114.196 144.078 112.152C144.725 111.903 145.372 111.653 146.02 111.404C151.241 109.341 156.344 106.873 161.705 105.246C183.267 98.7124 204.833 98.9488 226.337 105.779C244.746 111.658 260.286 121.718 272.852 135.933C275.241 138.677 277.473 141.598 279.816 144.412C282.13 148.105 284.424 151.766 286.738 155.459C287.452 157.026 288.114 158.58 288.828 160.146C297.61 178.862 300.282 198.435 296.652 218.633C291.73 245.885 277.626 267.811 254.509 284.184C253.36 284.985 253.036 285.607 253.546 286.991C256.183 294.118 258.682 301.24 261.234 308.374C261.123 308.482 260.992 308.559 260.894 308.616Z" fill="#FF3230"/>
</mask>
<g mask="url(#mask1_2404_269)">
<rect width="178.499" height="137.604" transform="matrix(-0.861453 0.504033 -0.529992 -0.8458 388.211 261.09)" fill="#FF8E8D"/>
</g>
<mask id="mask2_2404_269" style="mask-type:alpha" maskUnits="userSpaceOnUse" x="31" y="100" width="234" height="203">
<path d="M31.6951 221.04C32.1165 220.53 32.625 220.082 33.0029 219.541C41.4364 207.175 49.9076 194.803 58.341 182.437C58.687 181.939 59.0329 181.44 59.5969 180.61C67.16 195.201 74.6072 209.548 82.2311 224.28C76.3092 223.961 70.695 223.634 65.0866 223.344C72.6512 257.711 106.345 293.403 155.735 295.505C203.375 297.531 246.235 264.479 255.123 219.359C264.376 172.394 236.031 126.322 189.062 111.697C142.662 97.2492 87.9688 118.99 68.4984 167.54C66.2378 166.68 63.9451 165.863 61.6032 164.977C64.2602 158.092 67.6686 151.805 71.7501 145.866C83.015 129.424 97.9281 116.996 116.596 109.013C122.678 106.435 129.179 104.802 135.498 102.748C136.343 102.474 137.156 102.242 138.007 102.004C141.895 101.43 145.82 100.85 149.708 100.275C150.443 100.278 151.221 100.313 151.949 100.28C155.372 100.184 158.809 99.9371 162.229 100.066C187.197 100.89 209.238 109.088 228.186 124.832C242.864 137.028 253.277 152.056 259.226 169.871C260.39 173.319 261.327 176.8 262.377 180.264C262.995 184.165 263.607 188.03 264.224 191.931C264.215 192.604 264.206 193.277 264.196 193.95C264.171 199.402 264.578 204.901 264.082 210.311C262.079 232.062 253.601 251.226 238.844 267.81C226.179 281.996 210.615 292.02 192.215 297.8C188.679 298.882 185.032 299.757 181.445 300.772C177.029 301.425 172.651 302.072 168.235 302.725C166.464 302.763 164.725 302.759 162.954 302.797C141.7 303.475 121.964 298.37 104.043 287.4C79.8715 272.577 64.305 251.594 57.4968 224.689C57.17 223.357 56.7002 222.83 55.182 222.755C47.3586 222.382 39.5935 221.888 31.7963 221.436C31.7355 221.296 31.7124 221.15 31.6951 221.04Z" fill="#FF3230"/>
</mask>
<g mask="url(#mask2_2404_269)">
<rect width="176.018" height="138.153" transform="matrix(-0.16763 -0.985728 0.990581 -0.13594 30.7266 352.887)" fill="#FF8E8D"/>
</g>
<g clip-path="url(#clip0_2404_269)">
<path d="M320.227 109.008L310.258 108.425L304.49 108.027V108.017H304.418H304.338V108.029L273.32 110.424H270.748L270.446 120.758L275.439 122.457L278.465 137.322L264.697 163.65L256.377 169.737V175.54L261.37 180.212L261.672 201.588L263.186 201.87V201.643L263.946 201.784V201.869L293.496 211.46L294.738 212.273L297.336 210.711L318.267 199.038L320.227 109.008ZM288.459 175.413L296.554 168.791L288.459 175.413ZM260.384 178.161L262.573 180.213V180.34L260.384 178.161Z" fill="url(#paint0_linear_2404_269)"/>
<path d="M264.363 180.646L293.847 187.831L289.468 183.041L286.987 180.082L261.152 175.151L259.984 176.137L264.363 180.646Z" fill="#535461"/>
<path d="M259.984 176.137L289.03 182.619L289.176 175.856L280.856 172.756L264.217 170.079H259.4L259.984 176.137Z" fill="#EEEEEE"/>
<path d="M281.003 137.815L310.632 139.646V134.292L308.589 122.317L307.567 121.471L277.938 122.317L281.003 137.815Z" fill="#EEEEEE"/>
<path d="M273.996 110.904H272.536L272.244 121.189L277.061 122.88L279.98 137.674L266.698 163.88L258.67 169.938V175.715L263.487 180.364L263.779 201.639L265.238 201.921L264.946 180.787L260.13 175.856L259.984 169.938L267.719 164.021L281.294 137.815L278.374 122.88L273.558 120.908L273.996 110.904Z" fill="#D6D6E3"/>
<path d="M272.828 110.904H271.368L271.076 121.189L275.893 122.88L278.812 137.674L265.53 163.88L257.502 169.938V175.715L262.319 180.364L262.611 201.639L264.07 201.921L263.778 180.787L258.962 175.856L258.816 169.938L266.843 164.021L280.126 137.815L277.206 122.88L272.39 120.908L272.828 110.904Z" fill="#535461"/>
<path d="M272.756 120.133L273.486 121.119L277.573 122.951L309.976 122.105L306.837 121.189L303.48 119.78L303.918 118.653L272.756 120.133Z" fill="#A8A8A8"/>
<path d="M267.281 164.443L296.911 169.093L302.895 156.835L311.069 139.224L281.001 137.815L267.281 164.443Z" fill="#FF3230"/>
<g opacity="0.1">
<path opacity="0.1" d="M283.987 144.32L284.87 144.389L284.413 145.258L283.557 145.134L283.987 144.32Z" fill="white"/>
</g>
<g opacity="0.1">
<path opacity="0.1" d="M284.134 152.491L285.017 152.56L284.56 153.43L283.703 153.306L284.134 152.491Z" fill="white"/>
</g>
<g opacity="0.1">
<path opacity="0.1" d="M288.95 145.306L289.833 145.375L289.376 146.244L288.52 146.12L288.95 145.306Z" fill="white"/>
</g>
<g opacity="0.1">
<path opacity="0.1" d="M298.145 145.729L299.028 145.798L298.572 146.667L297.715 146.543L298.145 145.729Z" fill="white"/>
</g>
<g opacity="0.1">
<path opacity="0.1" d="M285.739 146.856L286.622 146.925L286.165 147.794L285.309 147.67L285.739 146.856Z" fill="white"/>
</g>
<g opacity="0.1">
<path opacity="0.1" d="M288.95 155.45L289.833 155.519L289.376 156.389L288.52 156.265L288.95 155.45Z" fill="white"/>
</g>
<g opacity="0.1">
<path opacity="0.1" d="M281.067 150.519L281.95 150.588L281.493 151.457L280.637 151.333L281.067 150.519Z" fill="white"/>
</g>
<g opacity="0.1">
<path opacity="0.1" d="M294.497 145.306L295.38 145.375L294.923 146.244L294.066 146.12L294.497 145.306Z" fill="white"/>
</g>
<g opacity="0.1">
<path opacity="0.1" d="M287.491 150.096L288.374 150.165L287.917 151.035L287.061 150.911L287.491 150.096Z" fill="white"/>
</g>
<g opacity="0.1">
<path opacity="0.1" d="M286.468 144.742L287.351 144.811L286.894 145.681L286.037 145.557L286.468 144.742Z" fill="white"/>
</g>
<g opacity="0.1">
<path opacity="0.1" d="M290.993 149.674L291.876 149.743L291.419 150.612L290.562 150.488L290.993 149.674Z" fill="white"/>
</g>
<g opacity="0.1">
<path opacity="0.1" d="M292.015 145.306L292.898 145.375L292.441 146.244L291.584 146.12L292.015 145.306Z" fill="white"/>
</g>
<g opacity="0.1">
<path opacity="0.1" d="M282.819 147.278L283.702 147.347L283.245 148.217L282.389 148.093L282.819 147.278Z" fill="white"/>
</g>
<path d="M259.4 170.079L288.3 175.715L296.261 168.991L267.355 164.232L259.4 170.079Z" fill="#D6D6E3"/>
<path d="M264.801 179.941V201.921L293.409 211.501L293.847 188.677L292.679 186.553L287.425 185.295L264.801 179.941Z" fill="#535461"/>
<path d="M268.522 166.979C269.207 166.979 269.763 166.664 269.763 166.275C269.763 165.886 269.207 165.57 268.522 165.57C267.837 165.57 267.281 165.886 267.281 166.275C267.281 166.664 267.837 166.979 268.522 166.979Z" fill="#575988"/>
<path d="M269.545 168.529C270.231 168.529 270.786 168.214 270.786 167.825C270.786 167.436 270.231 167.12 269.545 167.12C268.86 167.12 268.305 167.436 268.305 167.825C268.305 168.214 268.86 168.529 269.545 168.529Z" fill="#FA595F"/>
<path d="M266.041 168.106C266.727 168.106 267.282 167.791 267.282 167.402C267.282 167.013 266.727 166.698 266.041 166.698C265.356 166.698 264.801 167.013 264.801 167.402C264.801 167.791 265.356 168.106 266.041 168.106Z" fill="#FFD037"/>
<path d="M281.805 169.515C282.49 169.515 283.046 169.2 283.046 168.811C283.046 168.422 282.49 168.106 281.805 168.106C281.12 168.106 280.564 168.422 280.564 168.811C280.564 169.2 281.12 169.515 281.805 169.515Z" fill="#575988"/>
<path d="M279.325 170.783C280.01 170.783 280.565 170.468 280.565 170.079C280.565 169.69 280.01 169.375 279.325 169.375C278.639 169.375 278.084 169.69 278.084 170.079C278.084 170.468 278.639 170.783 279.325 170.783Z" fill="#FFD037"/>
<path d="M274.653 168.811C275.66 168.811 276.477 168.432 276.477 167.965C276.477 167.499 275.66 167.12 274.653 167.12C273.645 167.12 272.828 167.499 272.828 167.965C272.828 168.432 273.645 168.811 274.653 168.811Z" fill="#A8A8A8"/>
<path d="M283.12 171.065C283.805 171.065 284.36 170.75 284.36 170.361C284.36 169.972 283.805 169.656 283.12 169.656C282.434 169.656 281.879 169.972 281.879 170.361C281.879 170.75 282.434 171.065 283.12 171.065Z" fill="#FA595F"/>
<path d="M275.163 167.826H274.287L273.534 165.02C273.503 164.902 273.499 164.778 273.525 164.659C273.55 164.539 273.604 164.427 273.681 164.331C273.758 164.234 273.858 164.156 273.971 164.102C274.084 164.049 274.209 164.021 274.335 164.021V164.021C274.555 164.021 274.765 164.105 274.921 164.255C275.076 164.405 275.163 164.608 275.163 164.82V167.826Z" fill="#A8A8A8"/>
<path d="M287.789 171.065C288.797 171.065 289.614 170.687 289.614 170.22C289.614 169.753 288.797 169.375 287.789 169.375C286.782 169.375 285.965 169.753 285.965 170.22C285.965 170.687 286.782 171.065 287.789 171.065Z" fill="#A8A8A8"/>
<path d="M288.3 170.08H287.424L286.671 167.274C286.639 167.156 286.636 167.032 286.662 166.913C286.687 166.793 286.74 166.681 286.818 166.585C286.895 166.488 286.994 166.41 287.108 166.356C287.221 166.303 287.346 166.275 287.472 166.275V166.275C287.692 166.275 287.902 166.359 288.057 166.509C288.213 166.659 288.3 166.862 288.3 167.074V170.08Z" fill="#A8A8A8"/>
<path d="M273.851 110.904L303.919 108.509L303.189 119.076L273.121 120.485L273.851 110.904Z" fill="#535461"/>
<path d="M303.773 108.509L317.639 109.495L315.741 199.103L294.504 212.276L293.044 211.29L292.971 187.831L288.301 182.759V175.715L296.475 168.811L310.341 139.083L308.37 122.105H309.392L302.897 119.921L303.773 108.509Z" fill="#D6D6E3"/>
<path d="M305.086 108.65L319.098 109.495L317.2 199.103L294.43 212.206V187.831L289.76 182.759V175.715L297.934 168.811L311.8 139.083L309.318 122.035L304.356 119.921L305.086 108.65Z" fill="#535461"/>
<path d="M280.435 162.936C278.391 167.022 273.362 165.962 273.362 165.962C273.102 165.73 271.476 165.341 270.242 165.072C269.451 164.898 268.822 164.777 268.822 164.777L270.549 162.454L271.844 162.71L273.775 163.093C273.775 163.093 282.486 158.851 280.435 162.936Z" fill="url(#paint1_linear_2404_269)"/>
<g opacity="0.08">
<path opacity="0.08" d="M280.435 162.936C278.391 167.022 273.362 165.962 273.362 165.962C273.102 165.73 271.476 165.341 270.242 165.072C269.451 164.898 268.822 164.777 268.822 164.777L270.549 162.454L271.844 162.71L273.775 163.093C273.775 163.093 282.486 158.851 280.435 162.936Z" fill="url(#paint2_linear_2404_269)"/>
</g>
<g opacity="0.1">
<path opacity="0.1" d="M271.844 162.71L270.239 165.073C269.447 164.9 268.818 164.779 268.818 164.779L270.545 162.455L271.844 162.71Z" fill="url(#paint3_linear_2404_269)"/>
</g>
<path d="M253.894 154.265C253.894 154.265 261.421 165.62 269.481 165.593L271.67 162.352C271.67 162.352 264.293 157.266 263.312 154.615C262.951 153.628 262.203 152.277 261.406 150.951C258.959 146.889 252.357 149.542 253.808 154.006C253.836 154.094 253.865 154.181 253.894 154.265Z" fill="url(#paint4_linear_2404_269)"/>
<g opacity="0.05">
<path opacity="0.05" d="M253.894 154.265C253.894 154.265 261.421 165.62 269.481 165.593L271.67 162.352C271.67 162.352 264.293 157.266 263.312 154.615C262.951 153.628 262.203 152.277 261.406 150.951C258.959 146.889 252.357 149.542 253.808 154.006C253.836 154.094 253.865 154.181 253.894 154.265Z" fill="url(#paint5_linear_2404_269)"/>
</g>
<path d="M248.994 220.263L249.347 224.208C249.347 224.208 260.909 222.354 260.808 218.647C260.707 214.941 248.994 220.263 248.994 220.263Z" fill="url(#paint6_linear_2404_269)"/>
<g opacity="0.1">
<path opacity="0.1" d="M248.994 220.263L249.347 224.208C249.347 224.208 260.909 222.354 260.808 218.647C260.707 214.941 248.994 220.263 248.994 220.263Z" fill="url(#paint7_linear_2404_269)"/>
</g>
<path d="M262.526 221.499L262.324 224.921C262.324 224.921 278.38 223.78 277.773 220.554C277.165 217.327 268.685 219.122 268.685 219.122L262.526 221.499Z" fill="url(#paint8_linear_2404_269)"/>
<path d="M262.727 188.037C262.727 188.037 261.779 190.573 260.567 193.478C259.408 196.26 258.01 199.386 256.972 200.966C254.851 204.198 254.549 214.18 254.549 214.18C254.145 215.796 256.165 218.934 256.165 218.934C252.126 223.019 248.39 220.645 248.39 220.645C249.096 219.41 247.885 215.892 247.885 215.892C247.885 215.892 249.501 199.635 250.512 198.875C251.524 198.114 252.329 194.311 252.329 194.311L251.426 181.389L251.218 178.43L259.902 174.723L260.528 177.67L261.148 180.588L262.727 188.037Z" fill="url(#paint9_linear_2404_269)"/>
<g opacity="0.1">
<path opacity="0.1" d="M262.727 188.037C262.727 188.037 261.779 190.573 260.567 193.478C259.408 196.26 258.01 199.386 256.972 200.966C254.851 204.198 254.549 214.18 254.549 214.18C254.145 215.796 256.165 218.934 256.165 218.934C252.126 223.019 248.39 220.645 248.39 220.645C249.096 219.41 247.885 215.892 247.885 215.892C247.885 215.892 249.501 199.635 250.512 198.875C251.524 198.114 252.329 194.311 252.329 194.311L251.426 181.389L251.218 178.43L259.902 174.723L260.528 177.67L261.148 180.588L262.727 188.037Z" fill="url(#paint10_linear_2404_269)"/>
</g>
<path d="M270.3 219.504C268.483 222.546 262.126 222.166 262.126 222.166V213.229C262.126 213.229 260.309 203.247 261.319 200.971C262.329 198.696 260.915 194.507 260.915 194.507L260.567 193.48L256.45 181.222L255.256 177.669H268.887C268.887 177.669 268.887 178.278 268.887 179.267C268.905 183.071 268.986 192.498 269.388 194.686C269.893 197.443 268.478 199.249 268.478 199.249C268.478 199.249 269.286 210.467 268.579 213.984C267.873 217.501 270.3 219.504 270.3 219.504Z" fill="url(#paint11_linear_2404_269)"/>
<path d="M259.093 135.941C259.093 135.941 256.972 141.454 252.732 143.45C248.491 145.447 259.698 146.017 259.698 146.017C259.698 146.017 261.515 141.834 265.655 138.887L259.093 135.941Z" fill="url(#paint12_linear_2404_269)"/>
<g opacity="0.1">
<path opacity="0.1" d="M268.891 179.272C267.201 179.586 264.21 180.125 261.146 180.592C259.541 180.838 257.918 181.063 256.449 181.226C254.19 181.479 252.3 181.584 251.424 181.387L251.217 178.428L259.9 174.721L260.526 177.669H268.887C268.887 177.669 268.887 178.283 268.891 179.272Z" fill="url(#paint13_linear_2404_269)"/>
</g>
<path d="M270.3 178.72C270.3 178.72 253.236 182.048 251.116 181.002C248.997 179.957 248.489 177.296 249.096 174.348C249.704 171.401 249.096 164.081 247.986 154.764C247.427 150.072 248.659 146.923 250.022 144.954C250.62 144.105 251.426 143.411 252.368 142.933C253.309 142.456 254.359 142.21 255.422 142.216C257.268 142.209 259.062 142.805 260.512 143.907C260.938 144.235 261.369 144.504 261.72 144.596C261.998 144.668 262.415 144.952 262.888 145.34C264.994 147.09 266.316 149.56 266.577 152.231C266.752 154.002 266.937 156.232 267.028 158.486C267.121 160.412 267.1 162.34 266.966 164.263C266.872 165.671 266.942 167.084 267.174 168.477C267.96 173.614 270.3 178.72 270.3 178.72Z" fill="url(#paint14_linear_2404_269)"/>
<g opacity="0.1">
<path opacity="0.1" d="M267.173 168.484C260.98 164.846 257.778 154.668 257.778 154.668C257.778 154.579 257.778 154.492 257.768 154.406C257.629 149.738 264.749 148.839 265.957 153.369C266.35 154.844 266.687 156.341 266.757 157.375C266.795 157.755 266.886 158.129 267.027 158.486C267.12 160.411 267.1 162.34 266.966 164.263C266.872 165.673 266.941 167.089 267.173 168.484V168.484Z" fill="url(#paint15_linear_2404_269)"/>
</g>
<g opacity="0.1">
<path opacity="0.1" d="M258.031 139.221C259.038 140.828 259.835 142.447 261.88 142.722C262.884 141.492 264.051 140.395 265.351 139.459L258.783 136.511C258.783 136.511 259.168 137.517 258.031 139.221Z" fill="url(#paint16_linear_2404_269)"/>
</g>
<path d="M263.131 142.213C266.812 142.213 269.796 139.404 269.796 135.939C269.796 132.474 266.812 129.666 263.131 129.666C259.451 129.666 256.467 132.474 256.467 135.939C256.467 139.404 259.451 142.213 263.131 142.213Z" fill="url(#paint17_linear_2404_269)"/>
<g opacity="0.1">
<path opacity="0.1" d="M269.718 137.908C269.994 137.919 270.266 137.849 270.5 137.708C270.82 137.484 270.922 137.082 270.995 136.713C271.169 135.841 271.304 134.922 270.995 134.082C270.795 133.527 270.411 133.047 270.143 132.52C269.544 131.369 269.438 129.984 268.584 128.985C268.051 128.359 266.178 128.985 265.396 128.669C263.715 127.987 262.985 126.604 261.153 126.605C260.482 126.589 259.812 126.67 259.165 126.845C258.346 127.088 257.622 127.549 256.949 128.055C255.782 128.931 254.637 130.135 254.741 131.541C254.808 132.438 255.376 133.231 255.71 134.068C256.271 135.477 256.168 137.061 255.764 138.52C255.592 139.142 255.395 139.884 255.852 140.359C256.144 140.656 256.606 140.741 257.019 140.676C257.431 140.588 257.826 140.436 258.187 140.225C258.844 139.889 259.509 139.546 260.041 139.052C260.392 138.725 260.676 138.339 261.01 137.996C261.664 137.342 262.405 136.773 263.214 136.306C263.86 135.931 264.528 136.165 265.206 136.408C266.698 136.937 268.077 137.936 269.718 137.908Z" fill="url(#paint18_linear_2404_269)"/>
</g>
<path d="M269.618 137.812C269.894 137.823 270.167 137.753 270.401 137.612C270.72 137.388 270.822 136.986 270.895 136.617C271.069 135.745 271.205 134.826 270.895 133.987C270.695 133.432 270.312 132.951 270.043 132.424C269.445 131.273 269.338 129.888 268.484 128.889C267.951 128.264 266.179 128.985 265.397 128.668C263.716 127.986 262.885 126.508 261.053 126.51C260.382 126.494 259.712 126.574 259.065 126.749C258.247 126.993 257.523 127.453 256.85 127.959C255.682 128.836 254.538 130.039 254.641 131.445C254.708 132.342 255.276 133.136 255.61 133.973C256.171 135.381 256.069 136.965 255.664 138.425C255.492 139.046 255.295 139.789 255.752 140.263C256.044 140.561 256.507 140.645 256.92 140.58C257.332 140.492 257.726 140.34 258.087 140.13C258.744 139.793 259.41 139.45 259.941 138.956C260.293 138.629 260.576 138.243 260.91 137.901C261.565 137.246 262.306 136.677 263.114 136.21C263.761 135.835 264.428 136.069 265.107 136.313C266.598 136.841 267.978 137.84 269.618 137.812Z" fill="url(#paint19_linear_2404_269)"/>
<g opacity="0.05">
<path opacity="0.05" d="M267.174 168.484C266.943 167.091 266.873 165.678 266.967 164.27C267.101 162.347 267.121 160.419 267.028 158.493C266.938 156.239 266.754 154.009 266.577 152.238C266.315 149.564 264.99 147.093 262.88 145.343C262.411 144.955 261.994 144.669 261.712 144.599C261.361 144.508 260.93 144.238 260.504 143.91C259.07 142.807 260.892 144.955 261.361 145.343C263.471 147.093 264.796 149.564 265.058 152.238C265.233 154.009 265.418 156.239 265.509 158.493C265.602 160.419 265.581 162.347 265.447 164.27C265.354 165.678 265.423 167.091 265.655 168.484C266.44 173.617 268.78 178.72 268.78 178.72C268.78 178.72 257.357 180.947 252.041 181.184C256.207 181.466 270.293 178.72 270.293 178.72C270.293 178.72 267.959 173.614 267.174 168.484Z" fill="url(#paint20_linear_2404_269)"/>
</g>
<path d="M281.102 169.404C277.972 172.827 273.429 170.545 273.429 170.545C273.244 170.255 271.787 169.473 270.677 168.904C269.963 168.539 269.391 168.263 269.391 168.263L271.713 166.457L272.888 167.029L274.639 167.883C274.639 167.883 284.236 165.982 281.102 169.404Z" fill="url(#paint21_linear_2404_269)"/>
<g opacity="0.1">
<path opacity="0.1" d="M272.888 167.029L270.677 168.904C269.963 168.539 269.391 168.263 269.391 168.263L271.713 166.457L272.888 167.029Z" fill="url(#paint22_linear_2404_269)"/>
</g>
<path d="M257.981 154.384C257.981 154.384 262.02 167.218 269.795 169.214L272.824 166.647C272.824 166.647 267.159 159.893 266.96 157.09C266.889 156.055 266.553 154.554 266.161 153.085C264.952 148.556 257.832 149.454 257.971 154.122C257.974 154.208 257.977 154.295 257.981 154.384Z" fill="url(#paint23_linear_2404_269)"/>
<path opacity="0.05" d="M250.156 166.885C250.156 166.885 252.784 164.889 255.205 166.41C257.626 167.932 261.162 167.742 261.667 167.836" fill="url(#paint24_linear_2404_269)"/>
<path d="M279.678 162.727C277.729 166.712 272.946 165.686 272.946 165.686C272.698 165.459 271.151 165.08 269.979 164.818C269.225 164.649 268.627 164.536 268.627 164.536L270.27 162.269L271.502 162.52L273.34 162.893C273.34 162.893 281.626 158.741 279.678 162.727Z" fill="#F7C4A7"/>
<path opacity="0.08" d="M279.678 162.727C277.729 166.712 272.946 165.686 272.946 165.686C272.698 165.459 271.151 165.08 269.979 164.818C269.225 164.649 268.627 164.536 268.627 164.536L270.27 162.269L271.502 162.52L273.34 162.893C273.34 162.893 281.626 158.741 279.678 162.727Z" fill="black"/>
<path opacity="0.1" d="M271.502 162.506L269.979 164.811C269.225 164.642 268.627 164.529 268.627 164.529L270.27 162.262L271.502 162.506Z" fill="black"/>
<path d="M254.421 154.267C254.421 154.267 261.584 165.346 269.253 165.318L271.339 162.162C271.339 162.162 264.32 157.2 263.386 154.612C263.041 153.657 262.33 152.332 261.573 151.042C259.237 147.08 252.961 149.668 254.34 154.023C254.367 154.103 254.393 154.184 254.421 154.267Z" fill="#575988"/>
<path opacity="0.05" d="M254.421 154.267C254.421 154.267 261.584 165.346 269.253 165.318L271.339 162.162C271.339 162.162 264.32 157.2 263.386 154.612C263.041 153.657 262.33 152.332 261.573 151.042C259.237 147.08 252.961 149.668 254.34 154.023C254.367 154.103 254.393 154.184 254.421 154.267Z" fill="black"/>
<path d="M249.758 218.662L250.094 222.511C250.094 222.511 261.096 220.702 261 217.085C260.903 213.468 249.758 218.662 249.758 218.662Z" fill="#535461"/>
<path opacity="0.1" d="M249.758 218.662L250.094 222.511C250.094 222.511 261.096 220.702 261 217.085C260.903 213.468 249.758 218.662 249.758 218.662Z" fill="black"/>
<path d="M262.634 219.868L262.441 223.208C262.441 223.208 277.72 222.095 277.144 218.942C276.567 215.789 268.496 217.55 268.496 217.55L262.634 219.868Z" fill="#535461"/>
<path d="M262.826 187.217C262.826 187.217 261.923 189.688 260.77 192.526C259.666 195.24 258.335 198.29 257.348 199.831C255.337 202.986 255.045 212.724 255.045 212.724C254.661 214.301 256.582 217.363 256.582 217.363C252.739 221.351 249.183 219.032 249.183 219.032C249.856 217.826 248.703 214.394 248.703 214.394C248.703 214.394 250.24 198.532 251.202 197.791C252.164 197.05 252.93 193.339 252.93 193.339L252.07 180.731L251.873 177.849L260.138 174.231L260.738 177.107L261.321 179.954L262.826 187.217Z" fill="#FF8515"/>
<path opacity="0.1" d="M262.826 187.217C262.826 187.217 261.923 189.688 260.77 192.526C259.666 195.24 258.335 198.29 257.348 199.831C255.337 202.986 255.045 212.724 255.045 212.724C254.661 214.301 256.582 217.363 256.582 217.363C252.739 221.351 249.183 219.032 249.183 219.032C249.856 217.826 248.703 214.394 248.703 214.394C248.703 214.394 250.24 198.532 251.202 197.791C252.164 197.05 252.93 193.339 252.93 193.339L252.07 180.731L251.873 177.849L260.138 174.231L260.738 177.107L261.321 179.954L262.826 187.217Z" fill="#FF9437"/>
<path d="M270.033 217.919C268.304 220.888 262.249 220.516 262.249 220.516V211.796C262.249 211.796 260.52 202.056 261.48 199.83C262.441 197.604 261.096 193.522 261.096 193.522L260.769 192.524L256.85 180.571L255.715 177.105H268.688C268.688 177.105 268.688 177.698 268.688 178.665C268.704 182.375 268.783 191.575 269.165 193.709C269.645 196.399 268.299 198.162 268.299 198.162C268.299 198.162 269.069 209.106 268.396 212.533C267.723 215.959 270.033 217.919 270.033 217.919Z" fill="#FF9A37"/>
<path d="M259.367 136.387C259.367 136.387 257.348 141.767 253.312 143.714C249.277 145.661 259.943 146.219 259.943 146.219C259.943 146.219 261.673 142.133 265.612 139.262L259.367 136.387Z" fill="#F7C4A7"/>
<path opacity="0.1" d="M268.693 178.666C267.084 178.968 264.241 179.498 261.322 179.954C259.795 180.194 258.25 180.413 256.851 180.573C254.701 180.818 252.902 180.922 252.068 180.729L251.871 177.848L260.135 174.23L260.738 177.107H268.694C268.694 177.107 268.689 177.7 268.693 178.666Z" fill="black"/>
<path d="M270.033 178.123C270.033 178.123 253.794 181.363 251.777 180.349C249.759 179.334 249.278 176.731 249.854 173.856C250.431 170.982 249.854 163.839 248.798 154.748C248.265 150.171 249.438 147.099 250.734 145.176C251.293 144.353 252.055 143.677 252.952 143.209C253.849 142.742 254.853 142.498 255.872 142.499C257.635 142.493 259.346 143.075 260.715 144.146C261.121 144.466 261.531 144.73 261.865 144.818C262.13 144.887 262.527 145.166 262.972 145.544C264.99 147.271 266.249 149.678 266.491 152.272C266.659 153.999 266.834 156.176 266.92 158.376C267.009 160.255 266.99 162.136 266.863 164.012C266.774 165.385 266.84 166.764 267.06 168.123C267.806 173.148 270.033 178.123 270.033 178.123Z" fill="black"/>
<path opacity="0.1" d="M267.059 168.14C261.165 164.591 258.118 154.66 258.118 154.66C258.118 154.574 258.118 154.488 258.107 154.405C257.976 149.851 264.751 148.973 265.902 153.393C266.275 154.833 266.595 156.291 266.662 157.301C266.698 157.672 266.785 158.037 266.919 158.386C267.008 160.264 266.989 162.146 266.862 164.022C266.772 165.398 266.838 166.779 267.059 168.14Z" fill="black"/>
<path opacity="0.1" d="M258.357 139.587C259.315 141.155 260.074 142.736 262.021 143.002C262.973 141.806 264.083 140.735 265.324 139.818L259.078 136.943C259.078 136.943 259.439 137.926 258.357 139.587Z" fill="black"/>
<path d="M263.211 142.509C266.714 142.509 269.553 139.768 269.553 136.387C269.553 133.006 266.714 130.266 263.211 130.266C259.709 130.266 256.869 133.006 256.869 136.387C256.869 139.768 259.709 142.509 263.211 142.509Z" fill="#F7C4A7"/>
<path opacity="0.1" d="M269.48 138.306C269.743 138.317 270.003 138.248 270.224 138.109C270.528 137.891 270.626 137.498 270.694 137.138C270.859 136.293 270.986 135.391 270.694 134.571C270.505 134.029 270.144 133.561 269.883 133.047C269.312 131.92 269.211 130.573 268.4 129.598C267.892 128.988 266.111 129.598 265.365 129.289C263.76 128.624 263.071 127.275 261.328 127.276C260.687 127.26 260.047 127.339 259.431 127.51C258.651 127.747 257.962 128.2 257.323 128.69C256.208 129.546 255.122 130.719 255.221 132.092C255.285 132.968 255.825 133.734 256.144 134.557C256.678 135.935 256.582 137.478 256.195 138.901C256.031 139.507 255.843 140.231 256.278 140.696C256.549 140.985 256.996 141.069 257.395 141.004C257.789 140.919 258.167 140.77 258.511 140.565C259.136 140.237 259.769 139.903 260.274 139.421C260.609 139.101 260.879 138.725 261.197 138.391C261.817 137.754 262.523 137.199 263.294 136.741C263.91 136.376 264.542 136.6 265.192 136.841C266.606 137.36 267.918 138.335 269.48 138.306Z" fill="black"/>
<path d="M269.384 138.213C269.647 138.224 269.907 138.157 270.129 138.019C270.432 137.801 270.53 137.408 270.599 137.048C270.764 136.203 270.891 135.301 270.599 134.481C270.409 133.939 270.048 133.471 269.787 132.957C269.216 131.83 269.116 130.483 268.304 129.508C267.796 128.898 266.115 129.602 265.366 129.292C263.76 128.627 262.975 127.179 261.232 127.179C260.591 127.163 259.951 127.242 259.335 127.413C258.556 127.649 257.867 128.103 257.227 128.593C256.112 129.449 255.026 130.622 255.125 131.994C255.19 132.871 255.73 133.637 256.048 134.46C256.582 135.838 256.486 137.381 256.099 138.804C255.936 139.41 255.747 140.134 256.182 140.599C256.454 140.888 256.9 140.972 257.299 140.907C257.694 140.822 258.071 140.673 258.415 140.468C259.04 140.139 259.674 139.806 260.179 139.324C260.513 139.004 260.783 138.628 261.101 138.294C261.728 137.657 262.44 137.104 263.219 136.65C263.835 136.285 264.467 136.509 265.116 136.75C266.51 137.264 267.822 138.242 269.384 138.213Z" fill="#2F2E41"/>
<path opacity="0.05" d="M267.059 168.14C266.841 166.782 266.777 165.405 266.867 164.033C266.994 162.157 267.013 160.276 266.924 158.398C266.838 156.197 266.663 154.022 266.495 152.293C266.254 149.699 264.995 147.293 262.976 145.565C262.531 145.186 262.134 144.909 261.87 144.84C261.536 144.751 261.125 144.487 260.72 144.168C259.355 143.091 261.089 145.188 261.536 145.565C263.554 147.293 264.813 149.699 265.055 152.293C265.222 154.02 265.398 156.197 265.484 158.398C265.573 160.276 265.554 162.157 265.427 164.033C265.338 165.407 265.404 166.785 265.624 168.145C266.371 173.152 268.598 178.131 268.598 178.131C268.598 178.131 257.727 180.304 252.67 180.536C256.634 180.818 270.039 178.131 270.039 178.131C270.039 178.131 267.806 173.148 267.059 168.14Z" fill="black"/>
<path d="M280.314 169.038C277.335 172.377 273.016 170.151 273.016 170.151C272.841 169.869 271.455 169.104 270.389 168.55C269.71 168.194 269.166 167.925 269.166 167.925L271.376 166.162L272.494 166.726L274.165 167.556C274.165 167.556 283.293 165.699 280.314 169.038Z" fill="#F7C4A7"/>
<path opacity="0.1" d="M272.498 166.72L270.393 168.552C269.714 168.195 269.17 167.926 269.17 167.926L271.38 166.164L272.498 166.72Z" fill="black"/>
<path d="M258.31 154.382C258.31 154.382 262.153 166.905 269.549 168.852L272.432 166.347C272.432 166.347 267.031 159.757 266.852 157.023C266.783 156.012 266.465 154.553 266.09 153.114C264.939 148.696 258.164 149.572 258.297 154.126C258.302 154.21 258.306 154.296 258.31 154.382Z" fill="black"/>
<path opacity="0.05" d="M250.863 166.579C250.863 166.579 253.362 164.631 255.668 166.116C257.974 167.601 261.337 167.415 261.818 167.508" fill="black"/>
</g>
<path d="M160.824 159.571L128.363 158.393L111.244 160.068L81.9971 162.929L70.9911 164.005L45.5024 172.722C45.4001 172.757 45.2902 172.761 45.1855 172.735C45.0808 172.709 44.9855 172.652 44.9108 172.572C44.836 172.493 44.7848 172.393 44.7632 172.284C44.7415 172.176 44.7502 172.064 44.7884 171.96L44.7903 171.958L49.2107 159.968L48.7455 159.617L36.5812 150.45L36.5161 150.401L20.7432 147.935C20.5211 147.9 20.3114 147.807 20.1338 147.666C19.9562 147.525 19.8165 147.34 19.728 147.128C19.6395 146.917 19.6051 146.685 19.628 146.456C19.6508 146.227 19.7302 146.007 19.8587 145.818L43.8809 110.466L56.5046 91.893L57.8735 89.8767L110.386 89.1326L161.656 157.918C161.772 158.073 161.842 158.259 161.859 158.453C161.875 158.647 161.838 158.842 161.751 159.015C161.663 159.189 161.53 159.333 161.366 159.431C161.202 159.53 161.014 159.578 160.824 159.571V159.571Z" fill="#EEEEEE"/>
<path opacity="0.2" d="M70.1745 92.7455L48.745 159.617L36.582 150.45L43.8814 110.467L56.4683 91.8486L56.5041 91.892L70.1745 92.7455Z" fill="black"/>
<path d="M51.0461 118.363C48.6145 124.358 47.7537 129.365 44.8695 128.461C40.9209 127.223 45.0668 122.844 47.4984 116.849C49.9299 110.854 51.648 106.256 53.675 106.751C57.4539 107.675 53.4777 112.368 51.0461 118.363Z" fill="#3F3D56"/>
<path d="M56.5565 106.363C56.5558 105.967 56.479 105.574 56.3304 105.208C56.1818 104.841 55.9643 104.509 55.6903 104.228C55.4163 103.948 55.0912 103.726 54.7335 103.575C54.3759 103.424 53.9927 103.346 53.6058 103.347C53.5394 103.347 53.4737 103.35 53.4083 103.355L50.6284 103.003C50.3094 102.887 49.9732 102.827 49.6345 102.828C49.541 102.828 49.4486 102.833 49.3573 102.842L49.2503 102.829L49.2474 102.856C48.595 102.945 47.9907 103.257 47.531 103.74C47.0712 104.223 46.7825 104.85 46.7109 105.521C46.6392 106.192 46.7888 106.869 47.1357 107.442C47.4826 108.016 48.0069 108.454 48.6249 108.686L48.6191 108.741L48.8926 108.772C49.1379 108.838 49.3904 108.871 49.644 108.87C49.6721 108.87 49.6999 108.869 49.7278 108.868L52.5696 109.195C52.9037 109.324 53.2581 109.39 53.6153 109.389C53.7485 109.389 53.8815 109.379 54.0134 109.36L54.2557 109.388L54.2572 109.315C54.9105 109.165 55.4943 108.79 55.9122 108.253C56.3302 107.717 56.5574 107.05 56.5565 106.363V106.363Z" fill="#FF3230"/>
<path opacity="0.2" d="M56.5565 106.363C56.5558 105.967 56.479 105.574 56.3304 105.208C56.1818 104.841 55.9643 104.509 55.6903 104.228C55.4163 103.948 55.0912 103.726 54.7335 103.575C54.3759 103.424 53.9927 103.346 53.6058 103.347C53.5394 103.347 53.4737 103.35 53.4083 103.355L50.6284 103.003C50.3094 102.887 49.9732 102.827 49.6345 102.828C49.541 102.828 49.4486 102.833 49.3573 102.842L49.2503 102.829L49.2474 102.856C48.595 102.945 47.9907 103.257 47.531 103.74C47.0712 104.223 46.7825 104.85 46.7109 105.521C46.6392 106.192 46.7888 106.869 47.1357 107.442C47.4826 108.016 48.0069 108.454 48.6249 108.686L48.6191 108.741L48.8926 108.772C49.1379 108.838 49.3904 108.871 49.644 108.87C49.6721 108.87 49.6999 108.869 49.7278 108.868L52.5696 109.195C52.9037 109.324 53.2581 109.39 53.6153 109.389C53.7485 109.389 53.8815 109.379 54.0134 109.36L54.2557 109.388L54.2572 109.315C54.9105 109.165 55.4943 108.79 55.9122 108.253C56.3302 107.717 56.5574 107.05 56.5565 106.363V106.363Z" fill="#FF3230"/>
<path d="M17.2133 147.634L16.873 147.451C25.5884 130.415 50.2385 94.0161 50.4865 93.6504L50.8021 93.8754C50.5542 94.2409 25.9175 130.62 17.2133 147.634Z" fill="#3F3D56"/>
<path d="M43.9097 173.164L43.5391 173.061C43.7186 172.384 61.5702 105.229 67.7683 93.9006L68.1033 94.0934C61.9283 105.38 44.0893 172.488 43.9097 173.164Z" fill="#3F3D56"/>
<path d="M163.167 160.145C153.65 144.066 117.71 94.271 117.348 93.7699L117.656 93.5354C118.019 94.0366 153.97 143.847 163.496 159.94L163.167 160.145Z" fill="#3F3D56"/>
<path d="M43.2176 174.952C43.9604 174.951 44.5612 174.156 44.5597 173.176C44.5582 172.197 43.9548 171.404 43.212 171.405C42.4693 171.406 41.8684 172.201 41.87 173.181C41.8715 174.16 42.4749 174.953 43.2176 174.952Z" fill="#3F3D56"/>
<path d="M17.3016 148.396C18.0443 148.394 18.6452 147.6 18.6437 146.62C18.6421 145.641 18.0388 144.848 17.296 144.849C16.5533 144.85 15.9524 145.645 15.954 146.625C15.9555 147.604 16.5588 148.397 17.3016 148.396Z" fill="#3F3D56"/>
<path d="M163.524 161.03C164.267 161.028 164.868 160.234 164.866 159.254C164.865 158.275 164.261 157.482 163.519 157.483C162.776 157.484 162.175 158.279 162.177 159.259C162.178 160.238 162.782 161.031 163.524 161.03Z" fill="#3F3D56"/>
<path d="M48.9922 95.6064L121.476 96.403C121.426 90.3318 119.038 84.5269 114.833 80.2531C110.628 75.9793 104.947 73.5829 99.0267 73.5859L71.364 73.6316C59.7934 73.6507 49.9961 82.9303 49.0595 94.7576L48.9922 95.6064Z" fill="#3F3D56"/>
<path opacity="0.2" d="M112.681 120.179H86.1892C85.8667 120.178 85.5473 120.244 85.2496 120.371C84.9519 120.498 84.6818 120.685 84.4551 120.921C84.2284 121.156 84.0495 121.435 83.9288 121.742C83.8081 122.048 83.7481 122.377 83.7521 122.708L83.7751 124.694L84.0106 145.965L84.0144 146.376L84.0221 147.053L84.0297 147.715L84.0738 151.702C84.081 152.351 84.3339 152.972 84.779 153.433C85.2241 153.894 85.8265 154.16 86.4592 154.174C86.5242 154.174 86.5913 154.172 86.6583 154.168L92.9491 153.775L102.05 153.206L105.263 153.006L105.979 152.961L110.985 152.649H110.987L112.828 152.533C113.448 152.493 114.03 152.213 114.455 151.75C114.88 151.286 115.117 150.674 115.118 150.037V122.678C115.117 122.015 114.86 121.38 114.404 120.912C113.947 120.443 113.327 120.179 112.681 120.179V120.179Z" fill="black"/>
<path d="M118.135 116.705C118.04 116.712 117.947 116.742 117.863 116.791C117.78 116.84 117.708 116.907 117.653 116.988L114.734 116.993V116.199C114.733 115.536 114.476 114.901 114.02 114.433C113.563 113.964 112.943 113.7 112.297 113.7H85.8052C85.4827 113.699 85.1633 113.765 84.8656 113.892C84.5679 114.019 84.2978 114.206 84.0711 114.441C83.8444 114.677 83.6655 114.956 83.5448 115.263C83.4241 115.569 83.3641 115.898 83.3682 116.228L83.3776 117.045L81.495 117.048C81.3919 116.935 81.2502 116.868 81.0997 116.86C80.4399 116.861 79.9073 118.339 79.9102 120.161C79.913 121.982 80.4502 123.458 81.11 123.457C81.225 123.444 81.3353 123.403 81.4315 123.338C81.5277 123.272 81.6072 123.183 81.663 123.079L117.663 123.02C117.718 123.101 117.79 123.168 117.873 123.217C117.957 123.265 118.05 123.294 118.146 123.302C118.806 123.301 119.338 121.823 119.335 120.001C119.332 118.18 118.795 116.704 118.135 116.705Z" fill="#FF3230"/>
<path opacity="0.2" d="M118.135 116.705C118.04 116.712 117.947 116.742 117.863 116.791C117.78 116.84 117.708 116.907 117.653 116.988L114.734 116.993V116.199C114.733 115.536 114.476 114.901 114.02 114.433C113.563 113.964 112.943 113.7 112.297 113.7H85.8052C85.4827 113.699 85.1633 113.765 84.8656 113.892C84.5679 114.02 84.2978 114.206 84.0711 114.441C83.8444 114.677 83.6655 114.956 83.5448 115.263C83.4241 115.569 83.3641 115.898 83.3681 116.228L83.3776 117.045L81.495 117.048C81.3919 116.935 81.2502 116.868 81.0997 116.86C80.4399 116.861 79.9073 118.339 79.9102 120.161C79.913 121.982 80.4502 123.458 81.11 123.457C81.225 123.444 81.3353 123.403 81.4315 123.338C81.5278 123.272 81.6072 123.183 81.663 123.079L117.663 123.02C117.718 123.101 117.79 123.168 117.873 123.217C117.957 123.265 118.05 123.294 118.146 123.302C118.806 123.301 119.338 121.823 119.335 120.001C119.332 118.18 118.795 116.704 118.135 116.705Z" fill="#FF3230"/>
<path d="M115.17 158.414C114.995 158.582 114.784 158.706 114.554 158.777C114.324 158.848 114.081 158.863 113.844 158.822C113.607 158.78 113.383 158.683 113.189 158.538C112.995 158.393 112.836 158.204 112.725 157.985L111.285 155.149L111.858 153.876L114.946 155.903C115.146 156.034 115.314 156.21 115.437 156.418C115.56 156.626 115.635 156.86 115.657 157.102C115.679 157.344 115.646 157.588 115.562 157.816C115.477 158.043 115.343 158.247 115.17 158.414Z" fill="#FFB8B8"/>
<path d="M121.391 174.96C121.357 174.632 121.204 174.33 120.964 174.111C120.723 173.892 120.412 173.774 120.091 173.778C119.798 173.776 119.513 173.875 119.282 174.059C119.051 174.243 118.886 174.501 118.815 174.793V174.793L117.54 181.145C117.498 181.33 117.476 181.52 117.475 181.711C117.475 183.144 118.644 184.139 120.091 184.139C121.538 184.139 122.708 183.144 122.708 181.711C122.707 181.482 122.677 181.253 122.617 181.032L121.391 174.96Z" fill="#3F3D56"/>
<path d="M131.039 177.801C130.909 177.685 130.77 177.58 130.622 177.489L125.749 173.996C125.275 173.691 124.768 173.7 124.4 174.068C124.239 174.225 124.137 174.434 124.112 174.66C124.086 174.886 124.139 175.114 124.26 175.304L127.939 180.264C128.023 180.384 128.117 180.497 128.219 180.601C128.857 181.332 130.271 181.372 131.049 180.601C131.815 179.817 131.806 178.419 131.039 177.801Z" fill="#3F3D56"/>
<path d="M134.702 172.628H129.767C129.609 172.622 129.455 172.68 129.338 172.79C129.222 172.9 129.152 173.052 129.145 173.214C129.142 173.364 129.188 173.51 129.276 173.629C129.364 173.749 129.489 173.834 129.63 173.873L134.285 175.35C134.961 175.511 135.873 174.893 135.873 174.121C135.873 173.14 135.34 172.628 134.702 172.628Z" fill="#3F3D56"/>
<path d="M111.218 173.211C111.213 173.128 111.192 173.047 111.155 172.972C111.119 172.897 111.069 172.83 111.007 172.776C110.945 172.721 110.874 172.68 110.796 172.654C110.719 172.628 110.637 172.618 110.556 172.625H105.62C104.999 172.625 104.475 173.314 104.475 174.085C104.475 174.857 105.359 175.511 106.037 175.35L110.763 173.873C110.905 173.839 111.03 173.753 111.113 173.631C111.197 173.509 111.235 173.36 111.218 173.211Z" fill="#3F3D56"/>
<path d="M114.606 174.002L109.732 177.479C109.58 177.567 109.439 177.672 109.311 177.792C108.953 178.134 108.742 178.608 108.724 179.109C108.706 179.611 108.883 180.099 109.217 180.467C109.247 180.5 109.279 180.532 109.311 180.563C109.694 180.934 110.2 181.14 110.725 181.14C111.251 181.14 111.757 180.934 112.14 180.563C112.244 180.461 112.338 180.349 112.42 180.227L116.102 175.296C116.226 175.108 116.279 174.881 116.254 174.656C116.228 174.431 116.124 174.223 115.962 174.07C115.78 173.896 115.544 173.794 115.296 173.781C115.048 173.769 114.803 173.847 114.606 174.002V174.002Z" fill="#3F3D56"/>
<path d="M122.188 167.206C122.244 167.121 122.276 167.021 122.278 166.918C122.278 166.309 121.108 165.886 119.661 165.886C118.214 165.886 117.045 166.309 117.045 166.918C117.047 167.002 117.069 167.085 117.11 167.159L118.386 169.858C118.532 170.113 119.059 170.291 119.661 170.289C120.34 170.289 120.904 170.069 120.961 169.787L122.188 167.206Z" fill="#3F3D56"/>
<path d="M130.619 167.39C129.842 167.062 128.428 167.079 127.79 167.39C127.693 167.431 127.6 167.479 127.509 167.533L123.83 169.641C123.58 169.808 123.639 170.029 123.97 170.166C124.406 170.321 124.878 170.332 125.319 170.197L130.192 168.712C130.333 168.676 130.473 168.631 130.609 168.58C131.377 168.317 131.386 167.723 130.619 167.39Z" fill="#3F3D56"/>
<path d="M135.441 170.143C135.441 169.815 134.53 169.553 133.853 169.621L129.198 170.249C128.92 170.289 128.713 170.382 128.713 170.529C128.713 170.676 129.016 170.778 129.335 170.778H134.27C134.908 170.778 135.441 170.561 135.441 170.143Z" fill="#3F3D56"/>
<path d="M110.333 170.249L105.608 169.621C104.929 169.553 104.045 169.831 104.045 170.159C104.045 170.487 104.569 170.779 105.191 170.779H110.126C110.469 170.779 110.788 170.683 110.788 170.53C110.788 170.377 110.641 170.289 110.333 170.249Z" fill="#3F3D56"/>
<path d="M115.53 170.166C115.875 170.026 115.916 169.815 115.671 169.644L111.988 167.549C111.899 167.493 111.805 167.446 111.708 167.406C110.792 167.079 109.796 167.079 108.88 167.406C108.847 167.419 108.815 167.433 108.785 167.447C108.091 167.772 108.133 168.281 108.88 168.584C109.017 168.638 109.157 168.682 109.3 168.716L114.174 170.194C114.618 170.329 115.092 170.319 115.53 170.166V170.166Z" fill="#3F3D56"/>
<path d="M129.698 166.769C129.698 174.576 125.456 174.721 120.222 174.721C114.989 174.721 106.396 173.176 110.746 166.769C115.334 160.012 123.204 147.132 120.222 146.45C120.222 146.45 129.698 158.963 129.698 166.769Z" fill="#F9A825"/>
<path opacity="0.5" d="M123.561 171.573C123.561 174.663 121.881 174.721 119.81 174.721C117.738 174.721 114.337 174.109 116.059 171.573C117.875 168.898 120.99 163.8 119.81 163.53C119.81 163.53 123.561 168.483 123.561 171.573Z" fill="#FF6584"/>
<path d="M115.117 148.642V150.037C115.117 150.674 114.879 151.286 114.454 151.75C114.029 152.213 113.447 152.493 112.828 152.533L86.6574 154.168C86.3279 154.189 85.9977 154.141 85.6869 154.027C85.376 153.912 85.0911 153.735 84.8494 153.504C84.6076 153.273 84.4142 152.995 84.2807 152.685C84.1472 152.375 84.0765 152.041 84.0729 151.702L84.0098 145.965L99.8401 145.702L115.117 148.642Z" fill="#3F3D56"/>
<path d="M110.85 155.556L99.0438 149.267C98.9893 149.238 98.9415 149.198 98.9036 149.148C98.8656 149.099 98.8383 149.042 98.8235 148.98L96.2624 138.395C96.1138 137.78 96.194 137.131 96.4874 136.575C96.7808 136.018 97.2662 135.593 97.8486 135.384L98.4656 135.163C98.6032 135.113 98.7492 135.094 98.8945 135.104C99.0398 135.115 99.1815 135.157 99.3106 135.226C99.4398 135.295 99.5537 135.391 99.6453 135.507C99.737 135.623 99.8044 135.757 99.8434 135.901L102.368 145.221C102.391 145.308 102.44 145.386 102.508 145.444L112.128 153.618C112.211 153.689 112.265 153.788 112.28 153.898C112.295 154.007 112.27 154.118 112.209 154.21L111.406 155.413C111.347 155.502 111.257 155.566 111.155 155.592C111.052 155.619 110.944 155.606 110.85 155.556V155.556Z" fill="#E6E6E6"/>
<path d="M94.597 130.473C88.8707 127.381 97.2505 129.551 90.8257 130.473C92.7624 127.107 88.3025 128.887 88.2064 126.557C88.165 125.809 88.3034 125.061 88.6092 124.38C88.915 123.699 89.3791 123.105 89.9606 122.651C90.8965 121.939 92.0308 121.555 93.1958 121.556C94.2361 121.08 95.4148 121.032 96.4886 121.421C96.9444 121.597 97.3589 121.87 97.7049 122.221C98.051 122.573 98.3208 122.995 98.4969 123.461C98.7166 124.007 99.1894 124.485 99.8753 124.906C100.511 125.283 101.028 125.838 101.368 126.505C101.82 127.427 100.756 126.47 99.8753 129.258C98.9055 132.327 95.0065 126.658 94.597 130.473Z" fill="#2F2E41"/>
<path d="M94.9544 131.35C97.1696 131.35 98.9654 129.508 98.9654 127.236C98.9654 124.964 97.1696 123.123 94.9544 123.123C92.7391 123.123 90.9434 124.964 90.9434 127.236C90.9434 129.508 92.7391 131.35 94.9544 131.35Z" fill="#FFB8B8"/>
<path d="M96.8651 136.149L92.1855 136.638C92.4366 133.833 92.5355 131.243 92.1855 129.293H96.8651C95.9763 132.398 96.0543 134.612 96.8651 136.149Z" fill="#FFB8B8"/>
<path d="M99.3712 136.043C99.3674 136.473 99.3584 136.898 99.3444 137.319C99.2468 140.331 98.8773 143.042 97.8703 145.039C97.6658 145.452 97.4215 145.843 97.1409 146.207C97.139 146.211 97.1364 146.214 97.1332 146.217C97.1139 146.244 97.0928 146.27 97.0701 146.295C96.8641 146.557 96.6354 146.8 96.3866 147.02L94.4703 149.081L94.3822 149.175L93.8232 149.558L90.9439 151.526L84.029 147.715L84.0213 147.053L84.0137 146.376C85.551 144.141 86.5101 141.236 87.1189 137.927C87.2854 137.022 87.4271 136.086 87.5477 135.124C87.63 134.458 87.7028 133.779 87.766 133.09C87.7757 132.878 87.8456 132.674 87.967 132.503C87.967 132.502 87.967 132.502 87.9671 132.502C87.9672 132.502 87.9673 132.501 87.9675 132.501C87.9677 132.501 87.9679 132.501 87.9681 132.501C87.9684 132.501 87.9686 132.501 87.9689 132.501C88.2637 132.116 88.8495 132.124 89.5579 132.085C90.5514 132.03 91.5297 131.501 92.4084 132C92.4303 132.01 92.4514 132.022 92.4716 132.035L95.0503 134.973L96.2354 133.663L96.2909 133.602L98.7318 134.674C98.9814 134.785 99.1836 134.984 99.3012 135.236C99.4187 135.487 99.4436 135.774 99.3712 136.043V136.043Z" fill="#E6E6E6"/>
<path d="M93.9286 150.479C93.9287 150.98 93.8365 151.476 93.6568 151.942L92.9485 153.776L86.6576 154.168C86.5906 154.172 86.5236 154.174 86.4585 154.174C85.8259 154.16 85.2235 153.894 84.7784 153.433C84.3333 152.972 84.0804 152.351 84.0732 151.702L84.0291 147.715L84.0215 147.053L86.3111 148.048L88.5434 146.819C88.665 146.766 88.7897 146.72 88.9167 146.682C89.082 146.628 89.2509 146.587 89.4221 146.558H89.424C89.5063 146.545 89.5886 146.533 89.671 146.525C90.6171 146.428 91.5651 146.691 92.3339 147.265C92.7833 147.599 93.1563 148.029 93.4271 148.526C93.4478 148.56 93.4663 148.595 93.4826 148.632C93.6348 148.924 93.7493 149.236 93.8233 149.558C93.893 149.86 93.9283 150.169 93.9286 150.479V150.479Z" fill="#2F2E41"/>
<path opacity="0.2" d="M92.1367 138.744L92.9735 142.682L98.0577 147.167L93.5693 142.466L92.1367 138.744Z" fill="black"/>
<path opacity="0.2" d="M87.457 140.605L88.9849 146.971L93.4735 148.636L89.2715 146.481L87.457 140.605Z" fill="black"/>
<path d="M99.7772 127.481C96.821 126.086 93.4788 125.689 90.5137 127.187L90.8957 123.661L97.3897 122.584L99.7772 127.481Z" fill="#2F2E41"/>
<path d="M123.54 158.464L101.803 154.634L102.069 153.287L123.54 158.464Z" fill="#3F3D56"/>
<path d="M105.43 155.475C105.255 155.644 105.044 155.768 104.814 155.839C104.583 155.91 104.341 155.925 104.104 155.883C103.867 155.842 103.643 155.745 103.449 155.6C103.255 155.455 103.096 155.265 102.985 155.047L101.545 152.211L102.118 150.938L105.206 152.964C105.405 153.095 105.573 153.272 105.697 153.48C105.82 153.687 105.895 153.921 105.917 154.164C105.938 154.406 105.906 154.65 105.821 154.877C105.737 155.105 105.603 155.309 105.43 155.475V155.475Z" fill="#FFB8B8"/>
<path d="M101.108 152.618L89.3016 146.329C89.2471 146.3 89.1993 146.259 89.1614 146.21C89.1234 146.161 89.0961 146.103 89.0813 146.042L86.5202 135.456C86.3716 134.842 86.4518 134.193 86.7452 133.636C87.0386 133.08 87.524 132.655 88.1065 132.446L88.7235 132.225C88.861 132.175 89.007 132.155 89.1523 132.166C89.2977 132.177 89.4393 132.218 89.5684 132.288C89.6976 132.357 89.8115 132.452 89.9032 132.569C89.9948 132.685 90.0622 132.819 90.1012 132.963L92.6256 142.283C92.6492 142.37 92.6983 142.448 92.7662 142.506L102.386 150.68C102.469 150.75 102.523 150.85 102.538 150.96C102.553 151.069 102.528 151.18 102.467 151.271L101.664 152.475C101.604 152.564 101.515 152.628 101.413 152.654C101.31 152.681 101.202 152.668 101.108 152.618V152.618Z" fill="#E6E6E6"/>
<path d="M121.199 159.161C121.303 159.182 121.411 159.16 121.5 159.099C121.588 159.039 121.65 158.945 121.671 158.838L121.889 157.72C121.909 157.613 121.888 157.502 121.829 157.411C121.77 157.32 121.678 157.257 121.574 157.236L118.419 156.589C118.314 156.568 118.206 156.59 118.117 156.65C118.029 156.711 117.967 156.805 117.946 156.912L117.728 158.03C117.718 158.083 117.718 158.137 117.728 158.191C117.739 158.244 117.759 158.294 117.788 158.339C117.817 158.384 117.855 158.423 117.899 158.453C117.943 158.483 117.992 158.504 118.043 158.514L121.199 159.161Z" fill="#E6E6E6"/>
<g clip-path="url(#clip1_2404_269)">
<path d="M190.972 276.94C191.288 276.709 191.536 276.389 191.688 276.017C191.841 275.645 191.892 275.235 191.836 274.833C191.779 274.432 191.617 274.055 191.368 273.746C191.12 273.437 190.794 273.208 190.429 273.085L185.716 271.495L183.127 273.868L188.843 277.072C189.175 277.258 189.55 277.344 189.925 277.321C190.3 277.298 190.662 277.166 190.972 276.94V276.94Z" fill="#FFB9B9"/>
<path d="M183.049 275.417L186.155 271.608L174.588 258.22L169.262 245.161C168.911 244.3 168.286 243.597 167.496 243.173C166.706 242.749 165.8 242.631 164.936 242.839V242.839C164.371 242.975 163.843 243.246 163.393 243.632C162.942 244.017 162.581 244.507 162.338 245.063C162.094 245.619 161.974 246.227 161.987 246.84C162 247.452 162.146 248.054 162.413 248.598L169.364 262.758L183.049 275.417Z" fill="#E6E6E6"/>
<path d="M190.47 325.879L189.875 324.902H188.775V324.475H190.095L190.809 325.648L190.47 325.879Z" fill="#3F3D56"/>
<path d="M188.002 324.902H185.685V324.475H188.002V324.902ZM184.912 324.902H182.595V324.475H184.912V324.902ZM181.823 324.902H179.506V324.475H181.823L181.823 324.902ZM178.733 324.902H176.416V324.475H178.733V324.902ZM175.644 324.902H173.326V324.475H175.644V324.902ZM172.554 324.902L170.407 324.9L170.212 324.872L170.265 324.45L170.447 324.475H172.554V324.902ZM169.446 324.765L167.149 324.442L167.202 324.019L169.499 324.342L169.446 324.765ZM166.383 324.334L164.086 324.011L164.14 323.589L166.437 323.912L166.383 324.334ZM163.321 323.904L161.024 323.581L161.077 323.159L163.374 323.481L163.321 323.904ZM160.258 323.474L157.961 323.151L158.014 322.728L160.311 323.051L160.258 323.474Z" fill="#3F3D56"/>
<path d="M156.19 323.948L155.787 323.936L155.828 322.421L157.249 322.621L157.195 323.043L156.218 322.906L156.19 323.948Z" fill="#3F3D56"/>
<path d="M155.881 335.36L155.479 335.348L155.556 332.495L155.958 332.507L155.881 335.36ZM155.984 331.556L155.581 331.544L155.658 328.691L156.061 328.703L155.984 331.556ZM156.087 327.752L155.684 327.74L155.761 324.887L156.164 324.899L156.087 327.752Z" fill="#3F3D56"/>
<path d="M155.412 337.814L155.453 336.299L155.856 336.311L155.828 337.353L156.81 337.272L156.841 337.697L155.412 337.814Z" fill="#3F3D56"/>
<path d="M157.613 337.634L157.582 337.208L159.896 337.018L159.927 337.443L157.613 337.634ZM160.699 337.38L160.668 336.955L162.982 336.765L163.013 337.19L160.699 337.38ZM163.784 337.126L163.753 336.701L166.067 336.511L166.098 336.936L163.784 337.126ZM166.87 336.873L166.839 336.448L169.153 336.258L169.184 336.683L166.87 336.873ZM169.955 336.619L169.924 336.194L172.238 336.004L172.269 336.429L169.955 336.619ZM173.041 336.366L173.01 335.941L175.324 335.751L175.355 336.176L173.041 336.366ZM176.126 336.112L176.095 335.687L178.409 335.497L178.44 335.922L176.126 336.112ZM179.212 335.859L179.181 335.434L181.495 335.244L181.526 335.669L179.212 335.859ZM182.297 335.605L182.266 335.18L184.58 334.99L184.611 335.415L182.297 335.605ZM185.383 335.352L185.352 334.927L187.666 334.737L187.697 335.162L185.383 335.352ZM188.468 335.098L188.437 334.673L190.751 334.483L190.782 334.908L188.468 335.098ZM191.554 334.845L191.523 334.42L193.837 334.229L193.868 334.655L191.554 334.845Z" fill="#3F3D56"/>
<path d="M194.639 334.591L194.607 334.166L195.476 334.095L195.004 333.32L195.343 333.089L196.181 334.465L194.639 334.591Z" fill="#3F3D56"/>
<path d="M194.502 332.493L192.99 330.013L193.329 329.782L194.841 332.262L194.502 332.493ZM192.486 329.186L190.975 326.706L191.314 326.475L192.825 328.955L192.486 329.186Z" fill="#3F3D56"/>
<path d="M187.063 343.764C194.632 343.764 200.768 337.275 200.768 329.271C200.768 321.266 194.632 314.777 187.063 314.777C179.493 314.777 173.357 321.266 173.357 329.271C173.357 337.275 179.493 343.764 187.063 343.764Z" fill="#FF3230"/>
<path d="M198.349 346.109L188.322 327.299L178.295 308.49L173.861 313.179L193.613 346.002L198.349 346.109Z" fill="#3F3D56"/>
<path d="M137.582 345.15L182.628 296.874L186.356 304.653L143.628 347.281L137.582 345.15Z" fill="#3F3D56"/>
<path d="M155.923 340.034C160.932 340.034 164.993 335.74 164.993 330.443C164.993 325.146 160.932 320.852 155.923 320.852C150.914 320.852 146.854 325.146 146.854 330.443C146.854 335.74 150.914 340.034 155.923 340.034Z" fill="#3F3D56"/>
<path d="M143.83 333.214C143.777 333.214 143.726 333.237 143.688 333.277C143.65 333.317 143.629 333.371 143.629 333.427V335.132C143.629 335.189 143.65 335.243 143.688 335.283C143.726 335.323 143.777 335.345 143.83 335.346H148.869C148.923 335.345 148.974 335.323 149.012 335.283C149.049 335.243 149.071 335.189 149.071 335.132V333.427C149.071 333.371 149.049 333.317 149.012 333.277C148.974 333.237 148.923 333.214 148.869 333.214H143.83Z" fill="#FF3230"/>
<path d="M155.418 309.449C155.365 309.449 155.314 309.472 155.276 309.511C155.238 309.551 155.217 309.606 155.217 309.662V311.367C155.217 311.424 155.238 311.478 155.276 311.518C155.314 311.558 155.365 311.58 155.418 311.58H160.457C160.51 311.58 160.562 311.558 160.599 311.518C160.637 311.478 160.659 311.424 160.659 311.367V309.662C160.659 309.606 160.637 309.551 160.599 309.511C160.562 309.472 160.51 309.449 160.457 309.449H155.418Z" fill="#FF3230"/>
<path d="M179.906 305.932H174.666V301.669L176.681 300.817L179.906 303.374V305.932Z" fill="#3F3D56"/>
<path d="M175.33 299.737L174.783 300.01L175.817 302.323L176.364 302.049L175.33 299.737Z" fill="#3F3D56"/>
<path d="M175.909 296.971C175.871 296.971 175.833 296.983 175.801 297.005L172.241 299.426C172.196 299.457 172.164 299.505 172.153 299.56C172.142 299.615 172.152 299.673 172.18 299.72L173.053 301.155C173.081 301.202 173.127 301.235 173.179 301.247C173.231 301.259 173.286 301.249 173.331 301.219L176.891 298.797V298.797C176.936 298.767 176.967 298.719 176.979 298.663C176.99 298.608 176.98 298.55 176.951 298.503L176.079 297.069C176.065 297.045 176.046 297.025 176.025 297.009C176.003 296.993 175.978 296.982 175.953 296.976C175.938 296.972 175.924 296.971 175.909 296.971V296.971Z" fill="#FF3230"/>
<path d="M183.938 305.506L179.807 284.298L184.644 283.446L187.942 300.53C188.084 301.149 188.085 301.795 187.945 302.415C187.806 303.035 187.529 303.611 187.139 304.097C186.748 304.582 186.255 304.963 185.699 305.208C185.142 305.453 184.539 305.555 183.938 305.506Z" fill="#3F3D56"/>
<path d="M199.161 280.12L194.376 279.758C194.312 279.754 194.25 279.733 194.196 279.697C194.141 279.662 194.095 279.614 194.061 279.556C194.028 279.498 194.008 279.432 194.003 279.365C193.998 279.297 194.009 279.229 194.034 279.167L200.984 261.812C201.011 261.746 201.052 261.689 201.104 261.645C201.157 261.601 201.219 261.571 201.285 261.558L206.004 260.667C206.075 260.654 206.148 260.661 206.215 260.687C206.282 260.713 206.341 260.758 206.387 260.816C206.432 260.875 206.462 260.945 206.473 261.02C206.485 261.095 206.477 261.171 206.451 261.242L199.565 279.85C199.534 279.935 199.478 280.006 199.405 280.055C199.333 280.104 199.247 280.126 199.161 280.12Z" fill="#3F3D56"/>
<path d="M195.023 278.437L198.853 278.863L205.101 262.238L201.07 262.878L195.023 278.437Z" fill="#FF8515"/>
<path d="M153.302 324.049L148.263 329.378L141.008 295.915L145.039 296.554L153.302 324.049Z" fill="#3F3D56"/>
<path d="M147.43 296.503L146.56 296.227C144.85 297.024 142.99 297.395 141.123 297.309C140.719 297.292 140.338 297.109 140.06 296.8C139.781 296.491 139.627 296.08 139.629 295.654V295.654C139.629 295.214 139.794 294.793 140.088 294.482C140.382 294.171 140.78 293.996 141.196 293.996H148.798C149.004 293.996 149.201 294.083 149.346 294.237C149.492 294.391 149.574 294.599 149.574 294.817C149.574 295.091 149.513 295.362 149.397 295.607C149.28 295.853 149.111 296.066 148.903 296.229C148.694 296.393 148.453 296.503 148.197 296.551C147.942 296.598 147.679 296.582 147.43 296.503V296.503Z" fill="#3F3D56"/>
<path d="M195.581 275.576C195.387 275.576 195.197 275.644 195.043 275.769L188.855 280.772L181.929 281.728C180.736 281.892 179.91 283.264 179.807 284.512L187.96 283.314C189.092 283.199 190.163 282.713 191.022 281.924L196.162 277.223C196.299 277.098 196.397 276.932 196.442 276.747C196.487 276.561 196.477 276.366 196.414 276.186C196.35 276.007 196.237 275.852 196.088 275.743C195.939 275.634 195.762 275.576 195.581 275.576V275.576Z" fill="#3F3D56"/>
<path d="M192.558 272.379C192.363 272.379 192.174 272.446 192.019 272.571L185.832 277.575L178.905 278.531C177.713 278.695 176.887 280.067 176.783 281.314L184.936 280.117C186.069 280.001 187.139 279.516 187.999 278.727L193.139 274.026C193.276 273.901 193.373 273.735 193.418 273.549C193.463 273.364 193.453 273.168 193.39 272.989C193.327 272.81 193.213 272.655 193.064 272.546C192.916 272.437 192.739 272.379 192.558 272.379V272.379Z" fill="#3F3D56"/>
<path d="M196.333 285.257C194.892 285.254 193.472 284.893 192.187 284.204C190.902 283.515 189.787 282.517 188.934 281.289L189.746 280.659C190.398 281.6 191.223 282.392 192.173 282.987C193.122 283.582 194.175 283.967 195.269 284.119C196.363 284.271 197.475 284.186 198.537 283.871C199.6 283.556 200.59 283.017 201.45 282.285C202.31 281.554 203.02 280.646 203.538 279.616C204.057 278.586 204.372 277.455 204.466 276.293C204.56 275.13 204.43 273.959 204.084 272.852C203.737 271.744 203.183 270.721 202.452 269.847L203.208 269.141C204.376 270.541 205.137 272.267 205.401 274.113C205.664 275.959 205.418 277.846 204.692 279.547C203.966 281.249 202.791 282.693 201.309 283.706C199.826 284.719 198.098 285.257 196.333 285.257V285.257Z" fill="#3F3D56"/>
<path d="M203.387 345.043H132.039V350.372H203.387V345.043Z" fill="#3F3D56"/>
<path d="M185.902 282.423C186.258 282.272 186.567 282.019 186.794 281.692C187.021 281.365 187.157 280.977 187.186 280.572C187.216 280.168 187.137 279.762 186.959 279.402C186.782 279.043 186.513 278.743 186.182 278.537L181.922 275.879L178.898 277.585L183.798 282.052C184.083 282.311 184.43 282.483 184.801 282.549C185.172 282.614 185.552 282.571 185.902 282.423V282.423Z" fill="#FFB9B9"/>
<path d="M152.496 301.284L155.318 302.989L172.741 289.427C173.38 288.965 173.922 288.369 174.332 287.675C174.743 286.981 175.013 286.205 175.127 285.396V285.396C175.268 284.372 175.155 283.327 174.799 282.364C174.443 281.4 173.855 280.552 173.095 279.902C169.247 276.597 164.492 273.599 159.449 270.698L151.992 274.535C155.065 281.199 158.477 286.693 163.48 286.684L152.496 301.284Z" fill="#FF8515"/>
<path d="M151.267 305.585C153.608 308.093 156.691 309.887 160.134 311.335C160.394 311.444 160.679 311.465 160.95 311.395C161.221 311.325 161.465 311.168 161.649 310.946C161.872 310.676 161.99 310.327 161.981 309.969C161.972 309.61 161.835 309.269 161.599 309.012L159.367 306.589L158.018 301.51C155.122 303.023 153.223 302.685 152.849 299.513L151.024 302.146C150.671 302.656 150.501 303.282 150.546 303.912C150.591 304.543 150.846 305.136 151.267 305.585V305.585Z" fill="#2F2E41"/>
<path d="M143.428 328.14L147.66 328.353L157.334 275.707L140.707 270.059C139.047 276.623 141.511 287.366 145.846 300.005L143.428 328.14Z" fill="#FF8515"/>
<path d="M175.977 241.244C179.65 241.244 182.628 238.095 182.628 234.21C182.628 230.326 179.65 227.177 175.977 227.177C172.304 227.177 169.326 230.326 169.326 234.21C169.326 238.095 172.304 241.244 175.977 241.244Z" fill="#FFB9B9"/>
<path d="M163.783 242.842L168.016 246.04L174.465 239.219L171.24 234.956L163.783 242.842Z" fill="#FFB9B9"/>
<path d="M140 270.551C145.22 275.049 150.92 278.006 157.938 276.732C160.058 273.146 161.624 265.593 164.286 262.345C170.1 255.251 172.983 248.928 171.139 243.162C169.346 241.923 169.425 241.925 168.116 237.834C157.862 239.84 147.935 252.081 140 270.551Z" fill="#E6E6E6"/>
<path d="M143.359 332.485C146.372 333.992 149.849 334.559 153.553 334.67C153.833 334.678 154.107 334.594 154.339 334.43C154.571 334.266 154.75 334.03 154.85 333.755V333.755C154.972 333.42 154.97 333.049 154.845 332.716C154.72 332.383 154.481 332.112 154.176 331.956L151.293 330.49L148.378 326.208C146.149 328.681 144.256 329.051 142.875 326.208L142.015 329.343C141.849 329.95 141.893 330.6 142.139 331.176C142.386 331.752 142.818 332.216 143.359 332.485Z" fill="#2F2E41"/>
<path d="M178.497 279.076L182.326 276.092L173.861 260.32L171.413 246.336C171.251 245.415 170.79 244.582 170.109 243.983C169.428 243.384 168.569 243.056 167.683 243.056V243.056C167.104 243.056 166.532 243.196 166.012 243.466C165.492 243.736 165.037 244.129 164.683 244.614C164.328 245.099 164.084 245.663 163.967 246.263C163.851 246.864 163.867 247.484 164.013 248.077L167.815 263.517L178.497 279.076Z" fill="#E6E6E6"/>
<path d="M159.248 311.367H157.031V324.156H159.248V311.367Z" fill="#3F3D56"/>
<path d="M181.242 232.17C181.502 232.5 181.836 232.757 182.213 232.916C182.591 233.076 183 233.133 183.404 233.084C184.204 232.952 184.917 232.23 184.968 231.375C185.012 230.636 184.602 229.959 184.171 229.376C183.221 228.09 182.092 226.963 180.824 226.034C180.219 225.591 179.551 225.183 178.817 225.135C178.453 225.112 178.089 225.178 177.725 225.161C177.057 225.131 176.43 224.825 175.778 224.666C175.108 224.509 174.414 224.505 173.742 224.655C173.071 224.806 172.438 225.107 171.886 225.538C171.518 225.836 171.185 226.179 170.895 226.56C170.091 227.599 169.552 228.838 169.329 230.16C168.979 232.254 169.417 234.551 168.465 236.425C169.582 236.315 170.477 235.415 171.538 235.03C172.325 234.747 173.18 234.755 173.962 235.052C174.163 235.162 174.391 235.207 174.616 235.182C174.802 235.112 174.965 234.987 175.084 234.82L177.112 232.486C177.525 232.011 177.994 231.505 178.601 231.439C178.964 231.426 179.324 231.501 179.654 231.66C180.467 231.985 181.254 232.38 182.006 232.842" fill="#2F2E41"/>
<path d="M177.388 280.888L176.783 281.314L180.814 285.577L183.233 283.232L179.202 279.822L177.388 280.888Z" fill="#3F3D56"/>
</g>
<defs>
<linearGradient id="paint0_linear_2404_269" x1="288.301" y1="212.278" x2="288.301" y2="108.017" gradientUnits="userSpaceOnUse">
<stop stop-color="#808080" stop-opacity="0.25"/>
<stop offset="0.54" stop-color="#808080" stop-opacity="0.12"/>
<stop offset="1" stop-color="#808080" stop-opacity="0.1"/>
</linearGradient>
<linearGradient id="paint1_linear_2404_269" x1="6508.53" y1="2380.32" x2="6508.53" y2="2208.13" gradientUnits="userSpaceOnUse">
<stop stop-color="#808080" stop-opacity="0.25"/>
<stop offset="0.54" stop-color="#808080" stop-opacity="0.12"/>
<stop offset="1" stop-color="#808080" stop-opacity="0.1"/>
</linearGradient>
<linearGradient id="paint2_linear_2404_269" x1="6508.53" y1="2380.32" x2="6508.53" y2="2208.13" gradientUnits="userSpaceOnUse">
<stop stop-color="#808080" stop-opacity="0.25"/>
<stop offset="0.54" stop-color="#808080" stop-opacity="0.12"/>
<stop offset="1" stop-color="#808080" stop-opacity="0.1"/>
</linearGradient>
<linearGradient id="paint3_linear_2404_269" x1="1759.76" y1="1323.1" x2="1759.76" y2="1274.46" gradientUnits="userSpaceOnUse">
<stop stop-color="#808080" stop-opacity="0.25"/>
<stop offset="0.54" stop-color="#808080" stop-opacity="0.12"/>
<stop offset="1" stop-color="#808080" stop-opacity="0.1"/>
</linearGradient>
<linearGradient id="paint4_linear_2404_269" x1="8204.32" y1="7592.21" x2="8204.32" y2="5625.92" gradientUnits="userSpaceOnUse">
<stop stop-color="#808080" stop-opacity="0.25"/>
<stop offset="0.54" stop-color="#808080" stop-opacity="0.12"/>
<stop offset="1" stop-color="#808080" stop-opacity="0.1"/>
</linearGradient>
<linearGradient id="paint5_linear_2404_269" x1="8204.32" y1="7592.21" x2="8204.32" y2="5625.92" gradientUnits="userSpaceOnUse">
<stop stop-color="#808080" stop-opacity="0.25"/>
<stop offset="0.54" stop-color="#808080" stop-opacity="0.12"/>
<stop offset="1" stop-color="#808080" stop-opacity="0.1"/>
</linearGradient>
<linearGradient id="paint6_linear_2404_269" x1="4821.49" y1="6149.86" x2="4821.49" y2="5814.51" gradientUnits="userSpaceOnUse">
<stop stop-color="#808080" stop-opacity="0.25"/>
<stop offset="0.54" stop-color="#808080" stop-opacity="0.12"/>
<stop offset="1" stop-color="#808080" stop-opacity="0.1"/>
</linearGradient>
<linearGradient id="paint7_linear_2404_269" x1="4821.49" y1="6149.86" x2="4821.49" y2="5814.51" gradientUnits="userSpaceOnUse">
<stop stop-color="#808080" stop-opacity="0.25"/>
<stop offset="0.54" stop-color="#808080" stop-opacity="0.12"/>
<stop offset="1" stop-color="#808080" stop-opacity="0.1"/>
</linearGradient>
<linearGradient id="paint8_linear_2404_269" x1="7853.25" y1="5685.5" x2="7853.25" y2="5403.84" gradientUnits="userSpaceOnUse">
<stop stop-color="#808080" stop-opacity="0.25"/>
<stop offset="0.54" stop-color="#808080" stop-opacity="0.12"/>
<stop offset="1" stop-color="#808080" stop-opacity="0.1"/>
</linearGradient>
<linearGradient id="paint9_linear_2404_269" x1="6033.39" y1="39450.6" x2="6033.39" y2="24033.5" gradientUnits="userSpaceOnUse">
<stop stop-color="#808080" stop-opacity="0.25"/>
<stop offset="0.54" stop-color="#808080" stop-opacity="0.12"/>
<stop offset="1" stop-color="#808080" stop-opacity="0.1"/>
</linearGradient>
<linearGradient id="paint10_linear_2404_269" x1="6033.39" y1="39450.6" x2="6033.39" y2="24033.5" gradientUnits="userSpaceOnUse">
<stop stop-color="#808080" stop-opacity="0.25"/>
<stop offset="0.54" stop-color="#808080" stop-opacity="0.12"/>
<stop offset="1" stop-color="#808080" stop-opacity="0.1"/>
</linearGradient>
<linearGradient id="paint11_linear_2404_269" x1="6889.39" y1="37955.3" x2="6889.39" y2="23894.5" gradientUnits="userSpaceOnUse">
<stop stop-color="#808080" stop-opacity="0.25"/>
<stop offset="0.54" stop-color="#808080" stop-opacity="0.12"/>
<stop offset="1" stop-color="#808080" stop-opacity="0.1"/>
</linearGradient>
<linearGradient id="paint12_linear_2404_269" x1="5986.74" y1="3240.85" x2="5986.74" y2="2520.17" gradientUnits="userSpaceOnUse">
<stop stop-color="#808080" stop-opacity="0.25"/>
<stop offset="0.54" stop-color="#808080" stop-opacity="0.12"/>
<stop offset="1" stop-color="#808080" stop-opacity="0.1"/>
</linearGradient>
<linearGradient id="paint13_linear_2404_269" x1="7715.23" y1="3964.22" x2="7715.23" y2="3639.35" gradientUnits="userSpaceOnUse">
<stop stop-color="#808080" stop-opacity="0.25"/>
<stop offset="0.54" stop-color="#808080" stop-opacity="0.12"/>
<stop offset="1" stop-color="#808080" stop-opacity="0.1"/>
</linearGradient>
<linearGradient id="paint14_linear_2404_269" x1="9579.03" y1="21893.7" x2="9579.03" y2="11103.8" gradientUnits="userSpaceOnUse">
<stop stop-color="#808080" stop-opacity="0.25"/>
<stop offset="0.54" stop-color="#808080" stop-opacity="0.12"/>
<stop offset="1" stop-color="#808080" stop-opacity="0.1"/>
</linearGradient>
<linearGradient id="paint15_linear_2404_269" x1="4386.59" y1="8606.04" x2="4386.59" y2="6285.21" gradientUnits="userSpaceOnUse">
<stop stop-color="#808080" stop-opacity="0.25"/>
<stop offset="0.54" stop-color="#808080" stop-opacity="0.12"/>
<stop offset="1" stop-color="#808080" stop-opacity="0.1"/>
</linearGradient>
<linearGradient id="paint16_linear_2404_269" x1="3431.49" y1="1904.84" x2="3431.49" y2="1631.14" gradientUnits="userSpaceOnUse">
<stop stop-color="#808080" stop-opacity="0.25"/>
<stop offset="0.54" stop-color="#808080" stop-opacity="0.12"/>
<stop offset="1" stop-color="#808080" stop-opacity="0.1"/>
</linearGradient>
<linearGradient id="paint17_linear_2404_269" x1="5573.55" y1="3257.98" x2="5573.55" y2="2140.34" gradientUnits="userSpaceOnUse">
<stop stop-color="#808080" stop-opacity="0.25"/>
<stop offset="0.54" stop-color="#808080" stop-opacity="0.12"/>
<stop offset="1" stop-color="#808080" stop-opacity="0.1"/>
</linearGradient>
<linearGradient id="paint18_linear_2404_269" x1="7527.48" y1="3936.74" x2="7527.48" y2="2527.26" gradientUnits="userSpaceOnUse">
<stop stop-color="#808080" stop-opacity="0.25"/>
<stop offset="0.54" stop-color="#808080" stop-opacity="0.12"/>
<stop offset="1" stop-color="#808080" stop-opacity="0.1"/>
</linearGradient>
<linearGradient id="paint19_linear_2404_269" x1="7515.86" y1="3927.2" x2="7515.86" y2="2517.72" gradientUnits="userSpaceOnUse">
<stop stop-color="#808080" stop-opacity="0.25"/>
<stop offset="0.54" stop-color="#808080" stop-opacity="0.12"/>
<stop offset="1" stop-color="#808080" stop-opacity="0.1"/>
</linearGradient>
<linearGradient id="paint20_linear_2404_269" x1="8100.32" y1="21123.5" x2="8100.32" y2="11083.7" gradientUnits="userSpaceOnUse">
<stop stop-color="#808080" stop-opacity="0.25"/>
<stop offset="0.54" stop-color="#808080" stop-opacity="0.12"/>
<stop offset="1" stop-color="#808080" stop-opacity="0.1"/>
</linearGradient>
<linearGradient id="paint21_linear_2404_269" x1="6792.19" y1="2522.73" x2="6792.19" y2="2356.95" gradientUnits="userSpaceOnUse">
<stop stop-color="#808080" stop-opacity="0.25"/>
<stop offset="0.54" stop-color="#808080" stop-opacity="0.12"/>
<stop offset="1" stop-color="#808080" stop-opacity="0.1"/>
</linearGradient>
<linearGradient id="paint22_linear_2404_269" x1="2011.94" y1="1318.08" x2="2011.94" y2="1275.57" gradientUnits="userSpaceOnUse">
<stop stop-color="#808080" stop-opacity="0.25"/>
<stop offset="0.54" stop-color="#808080" stop-opacity="0.12"/>
<stop offset="1" stop-color="#808080" stop-opacity="0.1"/>
</linearGradient>
<linearGradient id="paint23_linear_2404_269" x1="7075.16" y1="9178.74" x2="7075.16" y2="6590.29" gradientUnits="userSpaceOnUse">
<stop stop-color="#808080" stop-opacity="0.25"/>
<stop offset="0.54" stop-color="#808080" stop-opacity="0.12"/>
<stop offset="1" stop-color="#808080" stop-opacity="0.1"/>
</linearGradient>
<linearGradient id="paint24_linear_2404_269" x1="4784.55" y1="1090.74" x2="4784.55" y2="1062.43" gradientUnits="userSpaceOnUse">
<stop stop-color="#808080" stop-opacity="0.25"/>
<stop offset="0.54" stop-color="#808080" stop-opacity="0.12"/>
<stop offset="1" stop-color="#808080" stop-opacity="0.1"/>
</linearGradient>
<clipPath id="clip0_2404_269">
<rect width="162.166" height="117.832" fill="white" transform="translate(204.906 107.089)"/>
</clipPath>
<clipPath id="clip1_2404_269">
<rect width="155.252" height="138.722" fill="white" transform="translate(85.4824 211.649)"/>
</clipPath>
</defs>
</svg>
